<svg version="1.1" id="Layer_1" xmlns="http://www.w3.org/2000/svg" xmlns:xlink="http://www.w3.org/1999/xlink" x="0px" y="0px"
	 width="100%" viewBox="0 0 192 192" enable-background="new 0 0 192 192" xml:space="preserve">
<path fill="#000000" opacity="1.000000" stroke="none" 
	d="
M110.000000,193.000000 
	C73.333336,193.000000 37.166672,193.000000 1.000005,193.000000 
	C1.000003,129.000000 1.000003,65.000015 1.000002,1.000014 
	C64.999992,1.000009 128.999985,1.000009 192.999969,1.000005 
	C192.999985,64.999985 192.999985,128.999969 193.000000,192.999969 
	C165.500000,193.000000 138.000000,193.000000 110.000000,193.000000 
M84.393944,186.669083 
	C84.597359,185.082062 84.972771,183.495560 84.977463,181.907959 
	C85.022217,166.777130 84.976135,151.646011 85.041946,136.515350 
	C85.049591,134.756119 85.576889,132.999161 85.986038,130.667068 
	C86.020432,130.474411 86.054825,130.281769 86.697441,129.811386 
	C101.500427,115.009811 116.321609,100.226318 131.071732,85.372231 
	C132.249298,84.186371 132.935898,82.513008 133.977554,80.120712 
	C133.923264,69.729713 133.868973,59.338715 133.952423,48.257156 
	C132.959961,46.993347 132.079910,45.618469 130.957764,44.482796 
	C118.941132,32.321373 106.886230,20.197767 94.659470,7.196337 
	C82.781647,7.196337 70.903816,7.196337 59.025990,7.196337 
	C58.991253,7.599676 58.956516,8.003014 58.921780,8.406352 
	C59.596855,8.637628 60.271927,8.868902 61.188248,9.721677 
	C71.209221,19.737488 81.230659,29.752831 91.250999,39.769279 
	C97.590607,46.106430 103.951187,52.422863 110.253838,58.796574 
	C112.208069,60.772831 114.002975,62.906628 115.259384,65.220100 
	C107.094711,73.382797 98.940651,81.556160 90.757088,89.699867 
	C88.955963,91.492226 87.050072,93.179314 85.030685,94.494003 
	C85.030685,94.494003 84.859200,94.077003 84.982315,93.129265 
	C84.988602,77.263206 85.020775,61.397049 84.957893,45.531269 
	C84.952110,44.074039 84.339302,42.619221 83.308502,41.227978 
	C76.147194,47.824505 68.985886,54.421032 60.975040,61.037937 
	C60.648903,61.850662 60.038689,62.663242 60.038277,63.476135 
	C60.028580,82.595276 60.084686,101.714462 60.021851,121.786560 
	C60.071198,132.593735 60.120544,143.400894 60.055367,155.086044 
	C59.423717,161.026855 60.160801,166.129150 65.521194,170.280869 
	C71.314606,174.767990 76.324043,180.263657 81.730125,185.260254 
	C82.258949,185.749008 83.171066,185.823059 84.393944,186.669083 
z"/>
<path fill="#FBB042" opacity="1.000000" stroke="none" 
	d="
M94.841827,8.063787 
	C106.886230,20.197767 118.941132,32.321373 130.957764,44.482796 
	C132.079910,45.618469 132.959961,46.993347 133.683563,48.609207 
	C133.414688,48.961254 133.015106,48.982948 132.722656,49.146282 
	C127.308342,54.528763 122.186470,59.747910 116.766174,64.985374 
	C116.268776,64.991890 116.069801,64.980095 115.870827,64.968300 
	C114.002975,62.906628 112.208069,60.772831 110.253838,58.796574 
	C103.951187,52.422863 97.590607,46.106430 91.250999,39.769279 
	C81.230659,29.752831 71.209221,19.737488 61.357277,9.096440 
	C72.631477,8.335399 83.736656,8.199594 94.841827,8.063787 
z"/>
<path fill="#F15B2B" opacity="1.000000" stroke="none" 
	d="
M115.565109,65.094200 
	C116.069801,64.980095 116.268776,64.991890 117.036896,65.171333 
	C122.721756,70.251846 127.837471,75.164719 133.069977,80.269936 
	C133.367081,80.708618 133.588379,80.909920 133.850662,81.066185 
	C132.935898,82.513008 132.249298,84.186371 131.071732,85.372231 
	C116.321609,100.226318 101.500427,115.009811 86.147461,129.607574 
	C85.397598,127.622353 85.043182,125.842613 85.023819,124.059227 
	C84.925491,114.999603 84.914009,105.939041 84.899658,96.547203 
	C85.015617,95.782028 85.104019,95.348450 85.192429,94.914879 
	C87.050072,93.179314 88.955963,91.492226 90.757088,89.699867 
	C98.940651,81.556160 107.094711,73.382797 115.565109,65.094200 
z"/>
<path fill="#2AA9E1" opacity="1.000000" stroke="none" 
	d="
M85.111557,94.704437 
	C85.104019,95.348450 85.015617,95.782028 84.597107,96.679138 
	C76.560738,104.708344 68.854462,112.274002 61.106865,119.384476 
	C61.042030,101.236870 60.996925,83.544403 61.031368,65.852089 
	C61.034512,64.240074 61.548058,62.629047 61.824581,61.017555 
	C68.985886,54.421032 76.147194,47.824505 83.656380,41.653858 
	C84.003868,57.478855 83.973442,72.878098 84.040924,88.276917 
	C84.049393,90.211433 84.573822,92.143700 84.859192,94.077003 
	C84.859200,94.077003 85.030685,94.494003 85.111557,94.704437 
z"/>
<path fill="#EE4136" opacity="1.000000" stroke="none" 
	d="
M61.148197,119.839661 
	C68.854462,112.274002 76.560738,104.708344 84.569550,97.010742 
	C84.914009,105.939041 84.925491,114.999603 85.023819,124.059227 
	C85.043182,125.842613 85.397598,127.622353 85.843353,129.746460 
	C86.054825,130.281769 86.020432,130.474411 85.631859,130.957352 
	C84.566170,131.806961 83.854660,132.366272 82.838333,133.082458 
	C76.526657,139.235565 70.556366,145.269272 64.482613,151.196991 
	C63.244633,152.405182 61.617592,153.214752 60.169895,154.208069 
	C60.120544,143.400894 60.071198,132.593735 60.320370,121.240494 
	C60.795326,120.409515 60.971764,120.124596 61.148197,119.839661 
z"/>
<path fill="#2DAAE0" opacity="1.000000" stroke="none" 
	d="
M60.112633,154.647064 
	C61.617592,153.214752 63.244633,152.405182 64.482613,151.196991 
	C70.556366,145.269272 76.526657,139.235565 83.041000,133.448563 
	C83.667419,151.135086 83.786346,168.612335 83.905273,186.089600 
	C83.171066,185.823059 82.258949,185.749008 81.730125,185.260254 
	C76.324043,180.263657 71.314606,174.767990 65.521194,170.280869 
	C60.160801,166.129150 59.423717,161.026855 60.112633,154.647064 
z"/>
<path fill="#97D5EF" opacity="1.000000" stroke="none" 
	d="
M61.106869,119.384483 
	C60.971764,120.124596 60.795326,120.409515 60.373802,120.764038 
	C60.084686,101.714462 60.028580,82.595276 60.038277,63.476135 
	C60.038689,62.663242 60.648903,61.850662 61.399811,61.027748 
	C61.548058,62.629047 61.034512,64.240074 61.031368,65.852089 
	C60.996925,83.544403 61.042030,101.236870 61.106869,119.384483 
z"/>
<path fill="#54B7E4" opacity="1.000000" stroke="none" 
	d="
M84.149612,186.379333 
	C83.786346,168.612335 83.667419,151.135086 83.345825,133.291718 
	C83.854660,132.366272 84.566170,131.806961 85.570473,131.244385 
	C85.576889,132.999161 85.049591,134.756119 85.041946,136.515350 
	C84.976135,151.646011 85.022217,166.777130 84.977463,181.907959 
	C84.972771,183.495560 84.597359,185.082062 84.149612,186.379333 
z"/>
<path fill="#51B9E6" opacity="1.000000" stroke="none" 
	d="
M84.920753,93.603134 
	C84.573822,92.143700 84.049393,90.211433 84.040924,88.276917 
	C83.973442,72.878098 84.003868,57.478855 84.006310,41.621510 
	C84.339302,42.619221 84.952110,44.074039 84.957893,45.531269 
	C85.020775,61.397049 84.988602,77.263206 84.920753,93.603134 
z"/>
<path fill="#FDE4BF" opacity="1.000000" stroke="none" 
	d="
M94.750648,7.630062 
	C83.736656,8.199594 72.631477,8.335399 61.236652,8.785690 
	C60.271927,8.868902 59.596855,8.637628 58.921780,8.406352 
	C58.956516,8.003014 58.991253,7.599676 59.025990,7.196337 
	C70.903816,7.196337 82.781647,7.196337 94.750648,7.630062 
z"/>
<path fill="#F79C30" opacity="1.000000" stroke="none" 
	d="
M133.914108,80.593445 
	C133.588379,80.909920 133.367081,80.708618 133.083923,79.793427 
	C132.992447,69.077362 133.003769,59.030155 133.015106,48.982948 
	C133.015106,48.982948 133.414688,48.961254 133.614685,48.954483 
	C133.868973,59.338715 133.923264,69.729713 133.914108,80.593445 
z"/>
<path fill="#F7931E" opacity="1.000000" stroke="none" 
	d="
M132.722656,49.146282 
	C133.003769,59.030155 132.992447,69.077362 132.967148,79.601074 
	C127.837471,75.164719 122.721756,70.251846 117.335327,65.153015 
	C122.186470,59.747910 127.308342,54.528763 132.722656,49.146282 
z"/>
</svg>